<?xml version="1.0" standalone="no"?>
<!DOCTYPE svg PUBLIC "-//W3C//DTD SVG 20010904//EN"
 "http://www.w3.org/TR/2001/REC-SVG-20010904/DTD/svg10.dtd">
<svg version="1.0" xmlns="http://www.w3.org/2000/svg"
 width="20pt" height="20pt" viewBox="0 0 20 20"
 preserveAspectRatio="xMidYMid meet">

<g transform="translate(0.000000,2000.000000) scale(0.100000,-0.100000)"
fill="#000000" stroke="none">
<path d="M5312 13316 c-64 -60 -117 -163 -132 -256 -5 -36 -10 -115 -10 -176
l0 -111 -66 -39 c-117 -69 -204 -183 -239 -315 -22 -81 -22 -7780 0 -7882 39
-185 189 -338 376 -382 56 -13 322 -15 2134 -15 1385 0 2085 4 2115 11 129 30
275 144 332 259 57 115 58 125 58 726 l0 552 158 4 157 3 63 34 c70 38 119 89
154 160 l23 46 3 863 c2 829 2 862 -16 862 -65 0 -195 109 -234 198 l-22 47 0
1405 -1 1405 -142 3 -143 3 0 814 c0 556 -4 831 -11 867 -28 136 -137 279
-261 343 l-56 29 -4 171 -3 171 -34 69 c-21 41 -56 90 -90 124 l-56 56 -3
-282 -2 -283 -1995 0 -1995 0 -2 283 -3 282 -53 -49z m3845 -1185 c88 -41 171
-123 211 -208 l27 -58 3 -1535 c3 -1711 8 -1584 -69 -1699 -50 -76 -131 -135
-219 -162 -64 -19 -95 -19 -1770 -17 l-1705 3 -68 32 c-127 60 -214 176 -236
314 -14 84 -15 2929 -1 3013 20 123 97 238 201 299 100 59 1 56 1854 54 l1700
-2 72 -34z m-1285 -4349 c20 -13 47 -40 60 -60 22 -36 23 -46 26 -284 4 -266
-2 -307 -44 -358 -51 -59 -39 -58 -544 -62 l-465 -3 -40 23 c-22 13 -52 39
-65 59 -25 36 -25 39 -28 292 -2 161 1 269 7 292 15 51 48 88 95 110 38 18 70
19 501 16 l460 -2 37 -23z m1423 9 c50 -22 92 -71 100 -114 3 -18 5 -149 3
-293 l-3 -261 -27 -35 c-54 -70 -42 -69 -570 -66 l-473 3 -33 23 c-18 13 -41
41 -52 62 -18 36 -20 60 -20 299 0 160 4 271 11 288 15 40 48 73 94 94 37 17
73 19 485 19 410 0 448 -2 485 -19z m-2882 -5 c43 -18 84 -67 97 -117 7 -26
10 -129 8 -282 -3 -275 -9 -297 -81 -345 l-41 -27 -458 -3 c-433 -2 -461 -2
-502 17 -24 10 -56 36 -72 57 l-29 37 -3 270 c-3 257 -2 271 18 313 14 29 36
52 63 69 l42 25 463 0 c368 0 469 -3 495 -14z m-21 -1108 c48 -14 103 -73 117
-125 14 -49 14 -476 1 -525 -13 -45 -51 -93 -94 -116 -28 -15 -75 -17 -491
-17 -520 0 -511 -1 -563 78 l-27 40 -3 268 c-3 249 -2 271 16 306 24 46 46 67
92 87 29 13 106 15 474 16 307 0 450 -4 478 -12z m1466 -7 c92 -47 101 -79
102 -371 0 -250 -6 -291 -46 -339 -51 -61 -61 -62 -570 -59 l-461 3 -37 29
c-73 55 -78 80 -74 380 l3 264 31 39 c60 75 44 73 557 73 430 0 460 -1 495
-19z m1449 -2 c29 -14 52 -35 68 -63 25 -43 25 -43 25 -310 0 -289 -1 -295
-57 -348 -15 -15 -41 -32 -56 -37 -19 -7 -184 -11 -477 -11 -293 0 -458 4
-477 11 -15 5 -41 22 -56 37 -56 53 -57 59 -57 348 0 266 0 267 25 309 16 28
39 50 67 64 42 20 55 21 497 21 441 0 456 -1 498 -21z m-1431 -1101 c77 -53
79 -62 82 -340 4 -266 -2 -307 -44 -358 -51 -60 -39 -58 -545 -62 l-464 -3
-40 23 c-22 13 -52 39 -65 59 -25 36 -25 38 -28 297 -3 222 -1 267 13 303 17
43 58 83 105 102 16 6 195 9 486 8 l461 -2 39 -27z m-1956 -368 l0 -390 -232
0 c-226 0 -232 1 -272 24 -23 14 -51 42 -64 65 -23 40 -23 45 -20 314 l3 274
29 37 c47 62 63 65 324 66 l232 0 0 -390z m483 376 c42 -17 83 -66 97 -114 12
-46 13 -462 0 -516 -12 -54 -38 -87 -90 -113 -42 -22 -56 -23 -262 -23 l-218
0 0 390 0 390 220 0 c164 0 229 -4 253 -14z"/>
<path d="M5660 10145 l0 -715 140 0 140 0 0 283 0 283 98 -14 c53 -8 165 -15
247 -15 140 -2 153 0 199 22 131 65 188 190 190 416 2 271 -87 407 -289 444
-35 7 -195 11 -392 11 l-333 0 0 -715z m673 452 c49 -32 62 -71 62 -187 0
-119 -15 -164 -64 -193 -25 -14 -57 -17 -210 -17 l-181 0 0 211 0 211 183 -4
c154 -2 187 -6 210 -21z"/>
<path d="M7115 10848 c-22 -58 -475 -1401 -475 -1409 0 -5 61 -9 144 -9 l143
0 52 160 52 160 236 -2 236 -3 50 -157 50 -158 144 0 c83 0 143 4 143 9 0 6
-45 146 -99 313 -55 167 -158 484 -231 706 l-131 402 -155 0 c-114 0 -156 -3
-159 -12z m224 -548 c28 -91 61 -198 75 -237 l25 -73 -169 0 -169 0 58 168
c32 92 71 205 86 251 18 55 30 79 35 70 4 -8 31 -88 59 -179z"/>
<path d="M7720 10855 c0 -3 97 -223 215 -489 l215 -484 0 -226 0 -226 140 0
140 0 0 224 0 224 234 488 234 489 -146 3 c-110 2 -147 -1 -153 -10 -5 -7 -75
-161 -155 -341 -134 -300 -148 -327 -159 -305 -7 12 -70 166 -141 340 l-129
318 -147 0 c-82 0 -148 -2 -148 -5z"/>
<path d="M15585 7271 c-241 -99 -1478 -591 -1911 -761 l-232 -91 73 -182 c40
-100 163 -410 274 -688 l201 -507 363 145 c199 79 583 231 852 337 270 107
650 257 846 335 l357 142 -273 682 c-218 544 -277 682 -291 684 -11 1 -127
-42 -259 -96z"/>
</g>
</svg>
